<?xml version="1.0" standalone="no"?>
<!DOCTYPE svg PUBLIC "-//W3C//DTD SVG 20010904//EN"
 "http://www.w3.org/TR/2001/REC-SVG-20010904/DTD/svg10.dtd">
<svg version="1.0" xmlns="http://www.w3.org/2000/svg"
 width="693.000000pt" height="457.000000pt" viewBox="0 0 693.000000 457.000000"
 preserveAspectRatio="xMidYMid meet">

<g transform="translate(0.000000,457.000000) scale(0.100000,-0.100000)"
fill="#000000" stroke="none">
<path d="M2035 3775 c-7 -79 -7 -79 22 -105 l29 -26 -31 -14 c-16 -8 -43 -35
-59 -59 -33 -49 -26 -61 32 -61 40 0 66 13 111 54 26 24 31 26 22 9 -18 -36
-12 -40 10 -8 12 17 18 21 15 10 -4 -10 -9 -37 -12 -60 -6 -45 18 -99 53 -122
19 -13 22 -10 42 45 18 47 20 64 11 86 -9 25 -8 27 7 21 46 -19 59 -16 119 33
l62 49 -63 11 c-79 15 -140 15 -167 1 -16 -9 -23 -8 -29 2 -5 8 -9 10 -9 4 0
-5 -11 13 -24 40 -13 28 -48 77 -79 109 l-54 60 -8 -79z"/>
<path d="M3180 3649 c-146 -11 -355 -54 -578 -116 -112 -32 -199 -59 -193 -61
5 -2 81 4 168 13 213 22 576 31 673 16 108 -17 200 -52 275 -105 91 -66 371
-287 601 -477 229 -189 328 -259 364 -259 43 0 70 26 70 69 0 132 -241 385
-605 633 -270 184 -440 270 -562 284 -97 10 -120 11 -213 3z"/>
<path d="M2635 3030 c9 -34 62 -128 93 -165 l24 -29 -43 -19 c-100 -42 -119
-43 -189 -9 -36 17 -87 47 -114 66 -28 19 -52 33 -54 31 -8 -8 39 -74 77 -107
65 -57 74 -62 154 -98 193 -87 -148 -23 -371 69 -40 17 -70 25 -66 18 13 -23
79 -102 104 -125 59 -54 200 -138 279 -168 l86 -33 -50 -3 -50 -3 53 -12 c124
-30 255 -9 472 73 52 19 106 38 120 40 14 3 49 16 79 30 29 13 61 24 71 24 20
0 50 -30 50 -51 0 -30 -31 -59 -62 -59 -29 0 -30 -2 -24 -32 3 -17 18 -46 32
-65 77 -102 239 -96 312 12 27 39 28 55 2 48 -69 -18 -133 74 -98 140 26 49
56 56 147 33 31 -8 82 -20 114 -26 83 -17 226 -91 293 -153 81 -73 162 -178
245 -317 39 -66 73 -120 75 -120 6 0 -58 175 -91 246 -87 189 -241 351 -418
440 -142 72 -361 111 -547 99 -158 -11 -154 -11 -212 26 l-51 33 29 9 c16 5
124 10 239 10 183 1 224 -2 315 -22 132 -28 232 -62 335 -114 80 -40 218 -128
230 -146 3 -6 20 -20 38 -32 21 -15 12 -2 -28 40 -60 62 -197 162 -284 205
-77 39 -262 94 -371 111 -132 19 -277 19 -427 -1 l-118 -15 -42 45 c-24 25
-43 43 -43 40 0 -3 9 -23 21 -45 11 -23 18 -43 16 -46 -3 -2 -38 -13 -78 -23
l-73 -19 -46 36 c-25 19 -71 63 -103 97 -45 47 -57 55 -52 36z m431 -217 l47
-46 -56 6 c-31 4 -84 19 -119 34 l-63 28 55 11 c84 18 86 17 136 -33z m-250
-36 c21 -18 50 -41 64 -50 l24 -17 -24 0 c-31 0 -197 35 -230 48 -28 11 -27
12 55 36 68 20 66 20 111 -17z"/>
<path d="M2910 2283 c0 -5 19 -27 43 -50 231 -223 752 -327 1310 -261 164 19
163 19 -338 68 -369 36 -586 73 -750 127 -97 32 -197 76 -236 104 -16 11 -29
16 -29 12z"/>
<path d="M2897 2096 c19 -34 145 -122 238 -168 137 -66 231 -89 390 -95 72 -3
127 -3 124 1 -3 3 -44 11 -90 17 -223 29 -474 120 -622 226 -27 19 -45 27 -40
19z"/>
<path d="M4813 1637 c-53 -30 -114 -132 -164 -273 -48 -138 -113 -234 -158
-234 -24 0 -7 81 36 169 l39 81 -27 0 c-14 0 -34 -9 -44 -20 l-18 -20 -22 20
c-45 43 -135 18 -189 -52 -49 -65 -71 -171 -46 -219 20 -36 67 -25 119 29 26
26 53 58 62 70 13 22 14 20 14 -38 0 -48 4 -65 17 -73 28 -18 68 3 114 60 l43
53 3 -58 c3 -57 3 -57 36 -60 40 -4 84 23 125 76 l27 35 0 -30 c0 -17 9 -42
21 -57 18 -23 28 -26 77 -26 54 0 57 1 106 52 44 46 55 52 93 53 24 0 43 0 43
-1 0 -1 -7 -21 -15 -44 -20 -58 -20 -60 18 -60 32 0 34 2 56 73 43 134 95 207
147 207 30 0 30 -4 -6 -112 -43 -127 -40 -168 11 -168 19 0 42 12 68 36 43 38
101 122 101 145 0 7 -12 -4 -26 -26 -40 -59 -75 -95 -96 -95 -25 0 -23 16 14
124 39 116 36 130 -31 124 -28 -3 -62 -14 -80 -27 l-31 -22 0 25 c0 23 -4 26
-34 26 -32 0 -34 -2 -40 -42 -13 -87 -83 -169 -119 -140 -12 10 -13 20 -5 49
22 82 -13 136 -87 136 -66 0 -118 -40 -167 -128 -70 -126 -146 -174 -141 -90
5 77 32 135 96 206 64 70 133 176 144 218 12 48 -36 76 -84 48z m67 -19 c0
-38 -152 -279 -167 -264 -7 6 74 196 103 239 24 36 64 52 64 25z m-425 -272
c18 -13 16 -18 -41 -102 -61 -92 -104 -128 -125 -107 -30 30 41 175 101 205
42 22 41 21 65 4z m562 -12 c3 -9 -3 -21 -16 -30 -23 -17 -29 -62 -10 -81 17
-17 -6 -66 -48 -103 -39 -34 -55 -37 -78 -13 -34 34 13 176 73 224 30 23 70
25 79 3z"/>
<path d="M4070 1621 c-48 -15 -89 -41 -101 -62 -42 -79 -30 -130 49 -220 69
-78 87 -116 78 -163 -16 -86 -139 -126 -182 -60 -16 23 -16 28 -1 59 18 38 14
45 -25 45 -54 0 -85 -60 -57 -112 16 -30 71 -48 146 -48 141 0 231 88 208 206
-5 27 -26 57 -81 115 -85 89 -98 115 -83 159 28 78 183 80 162 2 -3 -12 -8
-22 -12 -22 -3 0 -15 -7 -25 -15 -16 -12 -17 -17 -6 -30 19 -23 58 -18 86 10
33 33 30 90 -6 117 -28 21 -112 32 -150 19z"/>
<path d="M3237 1602 c-21 -23 -22 -51 -2 -66 13 -10 12 -16 -10 -48 -30 -45
-31 -52 -4 -38 33 18 80 101 77 135 -4 36 -36 45 -61 17z"/>
<path d="M1744 1591 c-43 -20 -54 -36 -54 -80 0 -40 12 -46 26 -12 19 45 50
59 159 72 55 6 114 17 130 24 27 12 16 13 -95 14 -101 0 -133 -3 -166 -18z"/>
<path d="M1791 1339 c-254 -259 -262 -269 -230 -268 30 0 44 11 122 100 l88
99 92 0 92 0 0 -85 c0 -64 4 -88 16 -100 20 -20 68 -22 111 -4 l33 14 -30 5
c-44 8 -57 41 -50 125 7 90 48 271 74 331 12 26 21 48 21 50 0 2 -17 4 -37 3
-36 -1 -52 -14 -302 -270z m194 69 l-22 -93 -72 -3 c-39 -2 -71 1 -71 5 0 9
172 183 181 183 3 0 -4 -42 -16 -92z"/>
<path d="M2287 1569 c-46 -27 -167 -342 -167 -437 0 -48 2 -53 27 -63 37 -14
95 -2 139 27 26 18 40 22 47 15 24 -24 64 -12 102 31 l38 42 -6 -39 c-3 -21
-2 -46 3 -56 21 -38 118 -32 174 12 20 16 30 19 39 10 23 -23 64 -12 96 24
l31 36 0 -39 c0 -47 14 -62 57 -62 26 0 43 10 78 45 25 24 45 42 45 40 0 -14
-53 -143 -70 -170 -22 -36 -63 -58 -90 -50 -24 8 -32 32 -20 55 8 15 6 20 -10
25 -47 15 -69 -51 -28 -79 34 -24 112 -20 160 6 51 29 76 72 133 233 26 72 55
145 66 163 l19 33 -37 -3 c-37 -3 -39 -6 -83 -91 -46 -90 -112 -171 -133 -164
-7 2 -13 20 -15 41 -4 41 43 154 80 194 l21 22 -29 0 c-45 0 -70 -23 -115
-110 -43 -84 -99 -143 -124 -134 -20 8 -19 14 15 79 50 95 39 175 -25 175 -35
0 -72 -28 -128 -100 l-27 -35 30 83 c16 46 49 121 74 168 l45 84 -29 0 c-48 0
-78 -50 -155 -254 -53 -139 -117 -220 -155 -196 -11 7 -8 21 18 71 23 43 32
76 32 108 0 52 -13 71 -47 71 -48 0 -89 -34 -141 -115 -12 -19 -13 -18 -8 10
7 47 75 202 112 256 l33 49 -27 0 c-15 0 -35 -5 -45 -11z m53 -276 c0 -68 -93
-207 -134 -201 -49 7 -19 112 54 189 45 47 80 52 80 12z m343 -11 c-2 -44 -50
-138 -86 -168 -99 -83 -78 90 21 177 43 38 68 35 65 -9z"/>
<path d="M5002 1514 c-46 -31 -71 -54 -58 -54 12 0 136 65 136 71 0 21 -34 13
-78 -17z"/>
<path d="M3377 1379 c-11 -6 -25 -26 -33 -45 -17 -41 -8 -67 40 -119 45 -47
49 -96 11 -121 -46 -30 -98 3 -75 47 9 15 7 21 -5 25 -43 17 -63 -62 -23 -90
29 -20 129 -21 167 -2 50 26 148 151 139 178 -2 6 -16 -9 -31 -34 -49 -84
-116 -149 -81 -79 21 43 9 75 -47 122 -66 55 -65 109 2 109 38 0 45 -17 20
-44 -22 -24 -19 -36 10 -36 44 0 67 70 30 90 -25 13 -101 12 -124 -1z"/>
<path d="M2293 769 c14 -8 16 -14 6 -25 -8 -10 -9 -14 0 -14 18 0 26 31 10 41
-8 5 -18 9 -24 9 -5 -1 -2 -5 8 -11z"/>
<path d="M296 761 c-4 -5 3 -7 14 -4 23 6 26 13 6 13 -8 0 -17 -4 -20 -9z"/>
<path d="M322 717 c-22 -52 -29 -97 -14 -97 4 0 8 11 8 23 1 13 13 47 26 75
16 32 21 52 13 52 -6 0 -21 -24 -33 -53z"/>
<path d="M397 747 c3 -14 0 -28 -6 -31 -6 -4 -8 -20 -5 -35 5 -22 1 -32 -17
-45 -17 -11 -19 -16 -8 -16 34 0 64 60 38 75 -6 5 -4 11 6 19 18 13 17 47 -1
53 -7 2 -10 -5 -7 -20z"/>
<path d="M476 761 c-4 -5 3 -7 14 -4 23 6 26 13 6 13 -8 0 -17 -4 -20 -9z"/>
<path d="M496 709 c-37 -85 -35 -89 22 -87 43 1 44 2 10 5 -21 2 -38 10 -38
16 0 7 13 38 29 70 18 36 24 57 16 57 -7 0 -24 -27 -39 -61z"/>
<path d="M575 760 c3 -5 8 -10 11 -10 2 0 4 5 4 10 0 6 -5 10 -11 10 -5 0 -7
-4 -4 -10z"/>
<path d="M646 761 c-4 -5 3 -7 14 -4 23 6 26 13 6 13 -8 0 -17 -4 -20 -9z"/>
<path d="M668 705 c-16 -35 -28 -69 -28 -75 0 -11 96 -14 103 -2 3 4 -15 5
-40 3 -43 -3 -45 -2 -38 20 4 13 18 45 31 72 17 32 20 47 12 47 -7 0 -25 -29
-40 -65z"/>
<path d="M816 761 c-4 -5 3 -7 14 -4 23 6 26 13 6 13 -8 0 -17 -4 -20 -9z"/>
<path d="M846 718 c-14 -29 -26 -62 -26 -75 0 -21 5 -23 44 -23 25 0 47 3 50
8 2 4 -13 6 -35 4 -33 -4 -39 -1 -39 15 0 11 11 42 25 69 29 56 28 54 16 54
-5 0 -21 -23 -35 -52z"/>
<path d="M986 761 c-3 -4 6 -6 19 -3 30 5 30 5 5 -49 -11 -24 -20 -54 -20 -66
0 -20 5 -23 44 -23 25 0 47 3 50 8 2 4 -13 6 -35 4 -48 -5 -50 9 -14 86 l24
52 -34 0 c-19 0 -36 -4 -39 -9z"/>
<path d="M1205 760 c-4 -6 11 -10 37 -10 l43 -1 -70 -64 c-38 -36 -64 -65 -58
-65 13 0 154 143 147 149 -3 3 -9 -1 -14 -9 -7 -10 -10 -11 -10 -2 0 15 -66
17 -75 2z"/>
<path d="M1407 763 c-13 -12 -7 -26 6 -15 6 5 23 12 37 15 22 4 21 4 -6 6 -17
0 -34 -2 -37 -6z"/>
<path d="M1430 693 c-41 -43 -59 -63 -40 -45 38 34 98 46 86 17 -8 -21 3 -45
21 -45 12 0 13 3 4 14 -9 11 -9 28 2 75 8 34 11 61 8 61 -4 0 -40 -35 -81 -77z
m53 19 c-3 -14 -13 -22 -26 -22 -20 0 -20 1 3 25 27 29 32 28 23 -3z"/>
<path d="M1837 749 c-34 -26 -55 -92 -37 -114 18 -22 33 -18 20 5 -15 28 4 84
37 110 14 11 21 20 16 20 -6 0 -22 -9 -36 -21z"/>
<path d="M2030 741 c-47 -46 -51 -106 -9 -120 12 -4 12 -2 0 13 -22 26 2 92
42 116 23 14 27 20 14 20 -10 0 -31 -13 -47 -29z"/>
<path d="M2130 754 c17 -28 6 -70 -30 -105 -29 -29 -28 -39 0 -16 48 37 65
103 33 128 -15 13 -15 12 -3 -7z"/>
<path d="M2247 763 c-14 -13 -6 -50 13 -68 23 -20 26 -45 8 -63 -7 -7 -8 -12
-2 -12 16 0 34 23 34 43 0 11 -11 33 -25 49 -20 24 -23 33 -14 44 11 14 -1 20
-14 7z"/>
<path d="M2415 739 c-9 -17 -14 -33 -12 -36 3 -2 8 5 12 16 12 40 27 22 23
-29 -3 -52 1 -60 22 -35 9 10 9 15 1 15 -7 0 -11 20 -11 50 0 57 -12 64 -35
19z"/>
<path d="M2531 757 c-6 -8 -9 -16 -6 -19 3 -3 -2 -21 -10 -41 -19 -45 -19 -77
-1 -77 9 0 12 7 9 19 -3 11 6 45 20 75 19 40 22 56 13 56 -8 0 -19 -6 -25 -13z"/>
<path d="M2623 763 c18 -5 16 -33 -3 -58 -5 -5 -11 -27 -15 -47 l-7 -38 43 0
c24 0 50 4 58 9 8 5 -4 7 -33 4 -40 -5 -46 -3 -46 13 0 11 7 30 16 42 8 12 12
22 8 22 -3 0 1 11 10 25 22 33 21 35 -16 34 -18 -1 -25 -3 -15 -6z"/>
<path d="M2705 760 c3 -5 8 -10 11 -10 2 0 4 5 4 10 0 6 -5 10 -11 10 -5 0 -7
-4 -4 -10z"/>
<path d="M2769 753 c-11 -15 -11 -16 1 -5 13 11 70 18 70 8 0 -2 -9 -23 -20
-47 -24 -53 -26 -89 -5 -89 16 0 21 16 6 22 -6 2 0 28 12 58 22 54 23 55 65
56 80 3 56 14 -30 14 -70 0 -88 -3 -99 -17z"/>
<path d="M2937 705 c-29 -70 -32 -85 -19 -85 5 0 14 19 21 43 7 23 21 57 32
75 13 23 15 32 5 32 -7 0 -24 -29 -39 -65z"/>
<path d="M3050 734 c-25 -29 -30 -43 -28 -72 2 -28 8 -37 23 -39 11 -2 14 0 8
3 -7 3 -13 21 -13 41 0 26 8 43 34 69 19 19 28 34 21 34 -7 0 -27 -16 -45 -36z"/>
<path d="M3257 763 c-13 -12 -7 -26 6 -15 6 5 23 12 37 15 22 4 21 4 -6 6 -17
0 -34 -2 -37 -6z"/>
<path d="M3280 695 c-41 -41 -70 -75 -64 -75 6 0 20 14 32 30 16 22 31 30 52
30 27 0 30 -3 30 -30 0 -17 5 -30 13 -30 8 0 12 16 12 48 0 26 3 59 8 75 4 15
4 27 -1 27 -4 0 -41 -34 -82 -75z m55 16 c-4 -13 -15 -21 -27 -21 -21 0 -21 0
2 25 26 28 35 27 25 -4z"/>
<path d="M3552 760 c25 -16 40 -69 28 -108 -6 -23 -6 -32 2 -30 12 4 39 78 28
78 -4 0 -11 15 -16 33 -7 24 -16 33 -34 35 -21 2 -22 1 -8 -8z"/>
<path d="M3640 738 l-23 -33 31 29 c34 31 37 36 24 36 -5 0 -19 -15 -32 -32z"/>
<path d="M3880 734 c-25 -29 -30 -43 -28 -72 2 -28 8 -37 23 -39 11 -2 14 0 8
3 -7 3 -13 21 -13 41 0 26 8 43 34 69 19 19 28 34 21 34 -7 0 -27 -16 -45 -36z"/>
<path d="M4068 763 c7 -3 16 -2 19 1 4 3 -2 6 -13 5 -11 0 -14 -3 -6 -6z"/>
<path d="M4081 721 c-39 -92 -15 -136 40 -73 l24 27 -28 -24 c-20 -18 -30 -22
-38 -14 -8 8 -4 27 15 68 29 64 29 65 17 65 -5 0 -18 -22 -30 -49z"/>
<path d="M4177 731 c-34 -51 -40 -104 -12 -109 14 -2 16 0 7 6 -10 7 -9 17 3
53 9 24 22 54 31 66 8 13 10 23 6 23 -5 0 -21 -17 -35 -39z"/>
<path d="M4268 763 c7 -3 16 -2 19 1 4 3 -2 6 -13 5 -11 0 -14 -3 -6 -6z"/>
<path d="M4291 743 c-41 -89 -51 -123 -36 -123 8 0 15 8 15 18 0 9 11 41 25
70 28 60 28 62 17 62 -5 0 -14 -12 -21 -27z"/>
<path d="M4346 761 c-3 -4 6 -6 21 -3 20 4 25 1 21 -9 -3 -8 -14 -33 -23 -56
-17 -42 -15 -73 4 -73 5 0 7 9 4 19 -3 11 6 45 20 75 l26 56 -34 0 c-19 0 -36
-4 -39 -9z"/>
<path d="M4458 754 c39 -27 20 -97 -33 -120 -24 -11 -26 -13 -9 -14 31 0 71
36 79 71 8 35 -16 79 -42 79 -14 0 -13 -3 5 -16z"/>
<path d="M4606 762 c-2 -4 11 -6 30 -4 19 2 34 6 34 8 0 8 -59 4 -64 -4z"/>
<path d="M4688 763 c0 -5 -2 -12 -3 -18 -2 -5 -3 -21 -4 -34 -1 -19 -5 -23
-25 -19 -19 4 -33 -4 -63 -36 -38 -41 -38 -41 -3 -8 45 41 77 43 82 5 2 -19 9
-29 23 -30 11 -2 14 0 8 3 -17 7 -16 40 1 97 12 40 12 47 0 47 -8 0 -15 -3
-16 -7z"/>
<path d="M4766 761 c-3 -4 6 -6 21 -3 14 3 24 1 22 -4 -29 -68 -40 -106 -36
-119 9 -22 26 -18 20 4 -3 11 6 45 20 75 l26 56 -34 0 c-19 0 -36 -4 -39 -9z"/>
<path d="M4878 754 c39 -27 21 -92 -32 -118 -24 -12 -27 -16 -11 -16 32 0 62
27 75 65 10 30 9 40 -4 60 -9 14 -24 25 -33 25 -14 0 -13 -3 5 -16z"/>
<path d="M5017 746 c-28 -26 -41 -60 -35 -97 6 -41 24 -31 20 11 -4 35 0 44
31 75 39 39 25 49 -16 11z"/>
<path d="M5108 763 c31 -13 -1 -116 -41 -129 -10 -3 -16 -8 -13 -11 11 -11 57
29 73 62 13 28 14 39 5 60 -6 14 -17 25 -24 24 -10 0 -10 -2 0 -6z"/>
<path d="M5306 761 c-4 -5 3 -7 14 -4 23 6 26 13 6 13 -8 0 -17 -4 -20 -9z"/>
<path d="M5327 702 c-30 -73 -32 -82 -18 -82 5 0 12 12 16 28 3 15 17 48 30
75 16 30 20 47 12 47 -7 0 -24 -30 -40 -68z"/>
<path d="M5405 736 c0 -27 3 -32 13 -24 14 13 12 50 -3 55 -5 2 -10 -12 -10
-31z"/>
<path d="M5456 761 c-4 -5 3 -7 14 -4 23 6 26 13 6 13 -8 0 -17 -4 -20 -9z"/>
<path d="M5476 709 c-37 -85 -35 -89 22 -87 43 1 44 2 10 5 -21 2 -38 10 -38
16 0 7 13 38 29 70 18 36 24 57 16 57 -7 0 -24 -27 -39 -61z"/>
<path d="M5555 760 c3 -5 8 -10 11 -10 2 0 4 5 4 10 0 6 -5 10 -11 10 -5 0 -7
-4 -4 -10z"/>
<path d="M5626 761 c-4 -5 3 -7 14 -4 23 6 26 13 6 13 -8 0 -17 -4 -20 -9z"/>
<path d="M5664 733 c-32 -76 -44 -115 -33 -111 6 2 19 28 30 58 10 30 23 58
29 64 13 13 13 26 0 26 -5 0 -17 -17 -26 -37z"/>
<path d="M5728 759 c16 -17 15 -24 -4 -43 -8 -9 -11 -16 -6 -16 31 0 41 59 12
68 -12 4 -13 2 -2 -9z"/>
<path d="M5852 758 c-17 -17 -15 -25 15 -65 22 -29 25 -38 15 -54 -15 -23 -9
-25 12 -3 22 22 20 38 -10 73 -14 17 -23 38 -20 46 7 18 4 19 -12 3z"/>
<path d="M5906 754 c-8 -21 -8 -24 3 -24 12 0 22 28 12 35 -5 3 -12 -2 -15
-11z"/>
<path d="M6010 740 c-31 -33 -43 -76 -29 -102 16 -30 25 -20 21 22 -4 35 0 44
31 75 22 22 30 35 20 35 -8 0 -27 -13 -43 -30z"/>
<path d="M6108 763 c6 -2 12 -20 12 -40 0 -26 -8 -43 -34 -69 -37 -37 -33 -46
7 -14 33 26 52 82 37 110 -6 11 -16 20 -23 19 -9 0 -9 -2 1 -6z"/>
<path d="M6237 743 c-19 -35 -23 -59 -6 -29 10 16 13 14 30 -24 11 -23 19 -49
19 -57 0 -8 4 -12 9 -9 12 8 20 55 8 53 -5 -1 -17 21 -27 48 l-17 50 -16 -32z"/>
<path d="M6336 753 c-6 -14 -5 -15 5 -6 7 7 10 15 7 18 -3 3 -9 -2 -12 -12z"/>
<path d="M6417 763 c-13 -12 -7 -26 6 -15 6 5 23 12 37 15 22 4 21 4 -6 6 -17
0 -34 -2 -37 -6z"/>
<path d="M6440 695 c-41 -41 -70 -75 -64 -75 6 0 20 14 32 30 16 22 31 30 52
30 27 0 30 -3 30 -30 0 -17 5 -30 13 -30 8 0 12 16 12 48 0 26 3 59 8 75 4 15
4 27 -1 27 -4 0 -41 -34 -82 -75z m55 16 c-4 -13 -15 -21 -27 -21 -21 0 -21 0
2 25 26 28 35 27 25 -4z"/>
<path d="M6586 761 c-4 -5 3 -7 14 -4 23 6 26 13 6 13 -8 0 -17 -4 -20 -9z"/>
<path d="M6606 709 c-37 -85 -35 -89 23 -89 28 0 52 3 54 8 3 4 -15 5 -39 3
-54 -4 -55 4 -16 83 18 35 24 56 17 56 -7 0 -24 -27 -39 -61z"/>
<path d="M3136 739 c-11 -11 -15 -19 -9 -19 12 0 38 28 32 34 -2 2 -13 -5 -23
-15z"/>
<path d="M3966 739 c-11 -11 -15 -19 -9 -19 12 0 38 28 32 34 -2 2 -13 -5 -23
-15z"/>
<path d="M1910 735 c-8 -9 -8 -15 -2 -15 12 0 26 19 19 26 -2 2 -10 -2 -17
-11z"/>
<path d="M2489 703 c-13 -16 -12 -17 4 -4 16 13 21 21 13 21 -2 0 -10 -8 -17
-17z"/>
<path d="M5680 695 c0 -21 32 -75 44 -75 11 0 10 8 -7 40 -19 35 -37 51 -37
35z"/>
<path d="M2382 665 c-7 -14 -12 -31 -12 -38 1 -7 7 3 16 22 17 39 13 54 -4 16z"/>
<path d="M6202 665 c-7 -14 -12 -31 -12 -38 1 -7 7 3 16 22 17 39 13 54 -4 16z"/>
<path d="M3134 648 l-19 -23 23 19 c21 18 27 26 19 26 -2 0 -12 -10 -23 -22z"/>
<path d="M3964 648 l-19 -23 23 19 c21 18 27 26 19 26 -2 0 -12 -10 -23 -22z"/>
<path d="M1895 639 c-16 -10 -25 -19 -19 -19 7 0 22 9 35 20 30 24 23 24 -16
-1z"/>
<path d="M2207 654 c-7 -8 3 -34 13 -34 5 0 8 9 7 20 -1 20 -8 25 -20 14z"/>
<path d="M5812 643 c2 -9 8 -18 15 -20 7 -3 9 3 6 16 -6 25 -26 28 -21 4z"/>
<path d="M1280 641 c-8 -6 -28 -7 -45 -5 -23 4 -27 3 -15 -5 22 -15 56 -13 70
4 14 17 11 19 -10 6z"/>
<path d="M1596 625 c-9 -26 -7 -32 5 -12 6 10 9 21 6 23 -2 3 -7 -2 -11 -11z"/>
</g>
</svg>
